<svg width="45" height="46" viewBox="0 0 45 46" fill="none" xmlns="http://www.w3.org/2000/svg">
<rect width="45" height="46" rx="22.5" fill="black"/>
<path d="M22.54 30.14C20.8467 30.14 19.4467 29.7467 18.34 28.96C17.2467 28.16 16.6533 26.9933 16.56 25.46H21.28C21.3467 26.2733 21.7067 26.68 22.36 26.68C22.6 26.68 22.8 26.6267 22.96 26.52C23.1333 26.4 23.22 26.22 23.22 25.98C23.22 25.6467 23.04 25.38 22.68 25.18C22.32 24.9667 21.76 24.7267 21 24.46C20.0933 24.14 19.34 23.8267 18.74 23.52C18.1533 23.2133 17.6467 22.7667 17.22 22.18C16.7933 21.5933 16.5867 20.84 16.6 19.92C16.6 19 16.8333 18.22 17.3 17.58C17.78 16.9267 18.4267 16.4333 19.24 16.1C20.0667 15.7667 20.9933 15.6 22.02 15.6C23.7533 15.6 25.1267 16 26.14 16.8C27.1667 17.6 27.7067 18.7267 27.76 20.18H22.98C22.9667 19.78 22.8667 19.4933 22.68 19.32C22.4933 19.1467 22.2667 19.06 22 19.06C21.8133 19.06 21.66 19.1267 21.54 19.26C21.42 19.38 21.36 19.5533 21.36 19.78C21.36 20.1 21.5333 20.3667 21.88 20.58C22.24 20.78 22.8067 21.0267 23.58 21.32C24.4733 21.6533 25.2067 21.9733 25.78 22.28C26.3667 22.5867 26.8733 23.0133 27.3 23.56C27.7267 24.1067 27.94 24.7933 27.94 25.62C27.94 26.4867 27.7267 27.2667 27.3 27.96C26.8733 28.64 26.2533 29.1733 25.44 29.56C24.6267 29.9467 23.66 30.14 22.54 30.14Z" fill="white"/>
</svg>
